<svg xmlns="http://www.w3.org/2000/svg" viewBox="0 0 400 240" fill="none">
  <defs>
    <linearGradient id="fn-bg" x1="0" y1="240" x2="400" y2="0" gradientUnits="userSpaceOnUse">
      <stop stop-color="#05070d"/>
      <stop offset="0.4" stop-color="#1a1030"/>
      <stop offset="1" stop-color="#0a1628"/>
    </linearGradient>
    <radialGradient id="fn-storm" cx="0.5" cy="0.88" r="0.6">
      <stop stop-color="#a855f7" stop-opacity="0.7"/>
      <stop offset="0.55" stop-color="#6366f1" stop-opacity="0.3"/>
      <stop offset="1" stop-color="#05070d" stop-opacity="0"/>
    </radialGradient>
    <radialGradient id="fn-beam" cx="0.5" cy="0.35" r="0.5">
      <stop stop-color="#22d3ee" stop-opacity="0.15"/>
      <stop offset="1" stop-color="#05070d" stop-opacity="0"/>
    </radialGradient>
  </defs>
  <rect width="400" height="240" fill="url(#fn-bg)"/>
  <rect width="400" height="240" fill="url(#fn-beam)"/>
  <ellipse cx="200" cy="215" rx="190" ry="85" fill="url(#fn-storm)"/>
  <circle cx="200" cy="118" r="78" stroke="#a855f7" stroke-opacity="0.3" stroke-width="2.5" stroke-dasharray="10 7"/>
  <circle cx="200" cy="118" r="54" stroke="#22d3ee" stroke-opacity="0.4" stroke-width="2"/>
  <circle cx="200" cy="118" r="28" stroke="#a855f7" stroke-opacity="0.25" stroke-width="1.5"/>
  <circle cx="200" cy="118" r="9" fill="#a855f7" fill-opacity="0.95"/>
  <path d="M200 36 L212 98 L200 88 L188 98 Z" fill="#f5d075" fill-opacity="0.9"/>
  <path d="M108 148 L162 132 L152 144 L166 156 Z" fill="#ff2d95" fill-opacity="0.55"/>
  <path d="M292 146 L238 130 L248 142 L234 154 Z" fill="#22d3ee" fill-opacity="0.5"/>
  <path d="M168 72 L176 96 L200 88 L224 96 L232 72" stroke="#f5d075" stroke-opacity="0.35" stroke-width="1.5" fill="none"/>
  <text x="24" y="30" fill="#a855f7" fill-opacity="0.9" font-family="system-ui,sans-serif" font-size="11" font-weight="700" letter-spacing="0.18em">BATTLE ROYALE</text>
  <text x="24" y="228" fill="#a855f7" fill-opacity="0.5" font-family="ui-monospace,monospace" font-size="9" letter-spacing="0.1em">PLACEMENT · K/D · WINS</text>
</svg>
