<svg xmlns="http://www.w3.org/2000/svg" viewBox="0 0 400 240" fill="none">
  <defs>
    <linearGradient id="rbx-bg" x1="0" y1="0" x2="400" y2="240" gradientUnits="userSpaceOnUse">
      <stop stop-color="#0a1628"/>
      <stop offset="0.45" stop-color="#142210"/>
      <stop offset="1" stop-color="#05070d"/>
    </linearGradient>
    <linearGradient id="rbx-glow" x1="200" y1="60" x2="200" y2="220" gradientUnits="userSpaceOnUse">
      <stop stop-color="#f5d075" stop-opacity="0.6"/>
      <stop offset="1" stop-color="#f5d075" stop-opacity="0"/>
    </linearGradient>
    <radialGradient id="rbx-spot" cx="0.3" cy="0.25" r="0.45">
      <stop stop-color="#22d3ee" stop-opacity="0.2"/>
      <stop offset="1" stop-color="#05070d" stop-opacity="0"/>
    </radialGradient>
  </defs>
  <rect width="400" height="240" fill="url(#rbx-bg)"/>
  <rect width="400" height="240" fill="url(#rbx-spot)"/>
  <ellipse cx="200" cy="185" rx="150" ry="55" fill="url(#rbx-glow)"/>
  <rect x="58" y="48" width="58" height="58" rx="7" fill="#f5d075" fill-opacity="0.95"/>
  <rect x="124" y="68" width="48" height="48" rx="6" fill="#7ddf00" fill-opacity="0.8"/>
  <rect x="180" y="42" width="62" height="62" rx="7" fill="#f5d075" fill-opacity="0.6"/>
  <rect x="250" y="62" width="52" height="52" rx="6" fill="#22d3ee" fill-opacity="0.4"/>
  <rect x="96" y="112" width="44" height="44" rx="5" fill="#f5d075" fill-opacity="0.45"/>
  <rect x="158" y="106" width="70" height="38" rx="5" fill="#7ddf00" fill-opacity="0.55"/>
  <circle cx="318" cy="54" r="22" fill="#f5d075" fill-opacity="0.28"/>
  <circle cx="48" cy="88" r="8" fill="#f5d075" fill-opacity="0.35"/>
  <path d="M32 208h336" stroke="#f5d075" stroke-opacity="0.25" stroke-width="2"/>
  <path d="M32 218h200" stroke="#22d3ee" stroke-opacity="0.15" stroke-width="1"/>
  <text x="24" y="30" fill="#f5d075" fill-opacity="0.85" font-family="system-ui,sans-serif" font-size="11" font-weight="700" letter-spacing="0.18em">EXPERIENCES</text>
  <text x="24" y="228" fill="#f5d075" fill-opacity="0.45" font-family="ui-monospace,monospace" font-size="9" letter-spacing="0.1em">SESSIONS · XP · HOPS</text>
</svg>
